<mxfile host="app.diagrams.net" agent="Mozilla/5.0 (iPad; CPU OS 18_2_0 like Mac OS X) AppleWebKit/605.1.15 (KHTML, like Gecko) CriOS/131.0.6778.134 Mobile/15E148 Safari/604.1" version="25.0.3">
  <diagram name="Page-1" id="U1tvkPGgVj7s_lOkvD2n">
    <mxGraphModel dx="1110" dy="1287" grid="0" gridSize="10" guides="1" tooltips="1" connect="1" arrows="1" fold="1" page="0" pageScale="1" pageWidth="827" pageHeight="1169" math="0" shadow="0">
      <root>
        <mxCell id="0" />
        <mxCell id="1" parent="0" />
        <mxCell id="cYbpkRRwryNcNZ2YvLZ1-1" value="" style="rounded=0;whiteSpace=wrap;html=1;" vertex="1" parent="1">
          <mxGeometry x="-2" y="-45" width="469" height="329" as="geometry" />
        </mxCell>
        <mxCell id="cYbpkRRwryNcNZ2YvLZ1-6" value="" style="edgeStyle=none;curved=1;rounded=0;orthogonalLoop=1;jettySize=auto;html=1;fontSize=12;startSize=8;endSize=8;" edge="1" parent="1" source="cYbpkRRwryNcNZ2YvLZ1-3" target="cYbpkRRwryNcNZ2YvLZ1-1">
          <mxGeometry relative="1" as="geometry">
            <Array as="points">
              <mxPoint x="-6" y="99" />
            </Array>
          </mxGeometry>
        </mxCell>
        <mxCell id="cYbpkRRwryNcNZ2YvLZ1-3" value="Developer (User)" style="rhombus;whiteSpace=wrap;html=1;" vertex="1" parent="1">
          <mxGeometry x="-190" y="50" width="113" height="95" as="geometry" />
        </mxCell>
        <mxCell id="cYbpkRRwryNcNZ2YvLZ1-5" value="Backend development diagram" style="text;strokeColor=none;fillColor=none;html=1;align=center;verticalAlign=middle;whiteSpace=wrap;rounded=0;fontSize=16;" vertex="1" parent="1">
          <mxGeometry x="58" y="-101" width="355" height="30" as="geometry" />
        </mxCell>
        <mxCell id="cYbpkRRwryNcNZ2YvLZ1-8" value="Test APIs with Postman" style="ellipse;whiteSpace=wrap;html=1;" vertex="1" parent="1">
          <mxGeometry x="166" y="166" width="133" height="93" as="geometry" />
        </mxCell>
        <mxCell id="cYbpkRRwryNcNZ2YvLZ1-9" value="Create APIs" style="ellipse;whiteSpace=wrap;html=1;" vertex="1" parent="1">
          <mxGeometry x="308" y="28" width="137" height="98" as="geometry" />
        </mxCell>
        <mxCell id="cYbpkRRwryNcNZ2YvLZ1-12" style="edgeStyle=none;curved=1;rounded=0;orthogonalLoop=1;jettySize=auto;html=1;fontSize=12;startSize=8;endSize=8;entryX=0.022;entryY=0.357;entryDx=0;entryDy=0;entryPerimeter=0;" edge="1" parent="1" source="cYbpkRRwryNcNZ2YvLZ1-10" target="cYbpkRRwryNcNZ2YvLZ1-9">
          <mxGeometry relative="1" as="geometry">
            <mxPoint x="300" y="68" as="targetPoint" />
          </mxGeometry>
        </mxCell>
        <mxCell id="cYbpkRRwryNcNZ2YvLZ1-10" value="Build Backend&amp;nbsp;" style="ellipse;whiteSpace=wrap;html=1;" vertex="1" parent="1">
          <mxGeometry x="24" y="25" width="142" height="92" as="geometry" />
        </mxCell>
        <mxCell id="cYbpkRRwryNcNZ2YvLZ1-11" value="Equip9 assignment system" style="text;strokeColor=none;fillColor=none;html=1;align=center;verticalAlign=middle;whiteSpace=wrap;rounded=0;fontSize=16;" vertex="1" parent="1">
          <mxGeometry x="107" y="-28" width="252" height="30" as="geometry" />
        </mxCell>
        <mxCell id="cYbpkRRwryNcNZ2YvLZ1-13" style="edgeStyle=none;curved=1;rounded=0;orthogonalLoop=1;jettySize=auto;html=1;entryX=0.925;entryY=0.312;entryDx=0;entryDy=0;entryPerimeter=0;fontSize=12;startSize=8;endSize=8;" edge="1" parent="1" source="cYbpkRRwryNcNZ2YvLZ1-9" target="cYbpkRRwryNcNZ2YvLZ1-8">
          <mxGeometry relative="1" as="geometry" />
        </mxCell>
      </root>
    </mxGraphModel>
  </diagram>
</mxfile>
